<svg viewBox="0 0 24 24" fill="none" xmlns="http://www.w3.org/2000/svg">
  <defs>
    <linearGradient id="clawos-grad" x1="0%" y1="0%" x2="100%" y2="100%">
      <stop offset="0%" stop-color="#3b82f6" />
      <stop offset="100%" stop-color="#8b5cf6" />
    </linearGradient>
  </defs>
  <path stroke="url(#clawos-grad)" stroke-width="2" stroke-linecap="round" stroke-linejoin="round" d="M14 10l-2 1m0 0l-2-1m2 1v2.5M20 7l-2 1m2-1l-2-1m2 1v2.5M14 4l-2-1-2 1M4 7l2-1M4 7l2 1M4 7v2.5M12 21l-2-1m2 1l2-1m-2 1v-2.5M6 18l-2-1v-2.5M18 18l2-1v-2.5" />
</svg>